<svg xmlns="http://www.w3.org/2000/svg" xmlns:xlink="http://www.w3.org/1999/xlink" width="1624" height="1000" viewBox="0 0 1624 1000">
  <defs>
    <clipPath id="clip-Create_Invoice__Page">
      <rect width="1624" height="1000"/>
    </clipPath>
  </defs>
  <g id="Create_Invoice__Page" data-name="Create_Invoice _Page" clip-path="url(#clip-Create_Invoice__Page)">
    <rect width="1624" height="1000" fill="#fff"/>
    <g id="Item_rec" transform="translate(0 212)" fill="#fff" stroke="#707070" stroke-width="1">
      <rect width="228" height="82" stroke="none"/>
      <rect x="0.5" y="0.5" width="227" height="81" fill="none"/>
    </g>
    <g id="Path_3" data-name="Path 3" transform="translate(0 54)" fill="rgba(63,169,225,0.47)">
      <path d="M 1623.5 157.5003662109375 L 0.5 157.5003662109375 L 0.5 0.4999678432941437 L 1623.5 0.4999678432941437 L 1623.5 157.5003662109375 Z" stroke="none"/>
      <path d="M 1 0.999969482421875 L 1 157.0003662109375 L 1623 157.0003662109375 L 1623 0.999969482421875 L 1 0.999969482421875 M 0 -3.0517578125e-05 L 1624 -3.0517578125e-05 L 1624 158.0003662109375 L 0 158.0003662109375 L 0 -3.0517578125e-05 Z" stroke="none" fill="#707070"/>
    </g>
    <g id="Inv_Date_rec" data-name="Inv Date_rec" transform="translate(1060 81)" fill="#fff" stroke="#707070" stroke-width="1">
      <rect width="548" height="119" rx="20" stroke="none"/>
      <rect x="0.5" y="0.5" width="547" height="118" rx="19.5" fill="none"/>
    </g>
    <path id="Path_2" data-name="Path 2" d="M3266,651V770" transform="translate(-1985 -570)" fill="none" stroke="#707070" stroke-width="1"/>
    <g id="Rectangle_6" data-name="Rectangle 6" transform="translate(0 409)" fill="#a4d6f1" stroke="#707070" stroke-width="1">
      <rect width="1624" height="251" stroke="none"/>
      <rect x="0.5" y="0.5" width="1623" height="250" fill="none"/>
    </g>
    <g id="Rectangle_7" data-name="Rectangle 7" transform="translate(0 409)" fill="#fff" stroke="#707070" stroke-width="1">
      <rect width="830" height="251" stroke="none"/>
      <rect x="0.5" y="0.5" width="829" height="250" fill="none"/>
    </g>
    <line id="Line_2" data-name="Line 2" x2="795" transform="translate(829 450)" fill="none" stroke="#707070" stroke-width="1"/>
    <line id="Line_3" data-name="Line 3" x2="796" transform="translate(828 617)" fill="none" stroke="#707070" stroke-width="1"/>
    <line id="Line_4" data-name="Line 4" x2="796" transform="translate(828 660)" fill="none" stroke="#707070" stroke-width="1"/>
    <line id="Line_5" data-name="Line 5" x2="794" transform="translate(830 529)" fill="none" stroke="#707070" stroke-width="1"/>
    <line id="Line_6" data-name="Line 6" x2="794" y2="2" transform="translate(830 487)" fill="none" stroke="#707070" stroke-width="1"/>
    <line id="Line_7" data-name="Line 7" x2="796" y2="2" transform="translate(828 572)" fill="none" stroke="#707070" stroke-width="1"/>
    <path id="Path_10" data-name="Path 10" d="M23.062,19.164" transform="translate(827 895)" fill="none" stroke="#707070" stroke-width="1"/>
    <line id="Line_8" data-name="Line 8" y2="48" transform="translate(827.5 895.5)" fill="none" stroke="#707070" stroke-width="1"/>
    <g id="Sign_rec" transform="translate(0 703)" fill="#fff" stroke="#707070" stroke-width="1">
      <rect width="1624" height="255" stroke="none"/>
      <rect x="0.5" y="0.5" width="1623" height="254" fill="none"/>
    </g>
    <line id="Terms_upperLine_" data-name="Terms_upperLine " x2="826" transform="translate(1 754)" fill="none" stroke="#707070" stroke-width="1"/>
    <line id="Line_11" data-name="Line 11" x2="2" y2="255" transform="translate(827 703)" fill="none" stroke="#707070" stroke-width="1"/>
    <line id="Line_12" data-name="Line 12" y2="255" transform="translate(1266.5 703.5)" fill="none" stroke="#707070" stroke-width="1"/>
    <text id="Terms_" data-name="Terms
" transform="translate(376 791)" fill="#707070" font-size="25" font-family="Arial-BoldMT, Arial" font-weight="700"><tspan x="-36.591" y="0">Terms</tspan><tspan x="0" y="29"></tspan></text>
    <text id="Item" transform="translate(113 271)" fill="#707070" font-size="30" font-family="Arial-BoldMT, Arial" font-weight="700"><tspan x="-30.842" y="0">Item</tspan></text>
    <g id="Component_1_1" data-name="Component 1 – 1" transform="translate(0 88)">
      <rect id="Cmpy_rec" width="306" height="110" rx="22" fill="#fff"/>
      <text id="Company_name" data-name="Company name" transform="translate(7 27)" fill="#707070" font-size="25" font-family="Arial-BoldMT, Arial" font-weight="700"><tspan x="0" y="0">Company name</tspan></text>
    </g>
    <text id="Invoice_" data-name="Invoice " transform="translate(1126 114)" fill="#707070" font-size="30" font-family="Arial-BoldMT, Arial" font-weight="700"><tspan x="0" y="0">Invoice </tspan></text>
    <text id="Date" transform="translate(1147 178)" fill="#707070" font-size="30" font-family="Arial-BoldMT, Arial" font-weight="700"><tspan x="0" y="0">Date</tspan></text>
    <text id="RETAIL_INVOICE" data-name="RETAIL INVOICE" transform="translate(82 35)" fill="#707070" font-size="25" font-family="Arial-BoldMT, Arial" font-weight="700"><tspan x="0" y="0">RETAIL INVOICE</tspan></text>
    <text id="Subtotal:_Rs._0.00" data-name="Subtotal: Rs.       0.00" transform="translate(1078 439)" fill="#707070" font-size="25" font-family="Arial-BoldMT, Arial" font-weight="700"><tspan x="0" y="0" xml:space="preserve">Subtotal: Rs.       0.00</tspan></text>
    <text id="TAX:_" data-name="TAX:%" transform="translate(1151 479)" fill="#707070" font-size="25" font-family="Arial-BoldMT, Arial" font-weight="700"><tspan x="0" y="0">TAX:%</tspan></text>
    <text id="VAT:" transform="translate(1168 518)" fill="#707070" font-size="25" font-family="Arial-BoldMT, Arial" font-weight="700"><tspan x="0" y="0">VAT:</tspan></text>
    <text id="Total:Rs." transform="translate(1124 558)" fill="#707070" font-size="25" font-family="Arial-BoldMT, Arial" font-weight="700"><tspan x="0" y="0">Total:Rs.</tspan></text>
    <text id="Balance_Due" data-name="Balance Due" transform="translate(1026 603)" fill="#707070" font-size="25" font-family="Arial-BoldMT, Arial" font-weight="700"><tspan x="0" y="0">Balance Due</tspan></text>
    <text id="Tax_value" transform="translate(1266 479)" fill="#707070" font-size="25" font-family="Arial-BoldMT, Arial" font-weight="700"><tspan x="0" y="0" xml:space="preserve">  0.00</tspan></text>
    <text id="Vat_value" transform="translate(1277 521)" fill="#707070" font-size="25" font-family="Arial-BoldMT, Arial" font-weight="700"><tspan x="0" y="0">0.00</tspan></text>
    <text id="Total_value" transform="translate(1277 561)" fill="#707070" font-size="25" font-family="Arial-BoldMT, Arial" font-weight="700"><tspan x="0" y="0">0.00</tspan></text>
    <text id="Balance_value" transform="translate(1277 603)" fill="#707070" font-size="25" font-family="Arial-BoldMT, Arial" font-weight="700"><tspan x="0" y="0">0.00</tspan></text>
    <text id="Recived_Signature" data-name="Recived Signature" transform="translate(1078 909)" fill="#707070" font-size="25" font-family="ArialMT, Arial"><tspan x="-102.142" y="0">Recived Signature</tspan></text>
    <text id="Authorized_Signature" data-name="Authorized Signature" transform="translate(1460 909)" fill="#707070" font-size="25" font-family="ArialMT, Arial"><tspan x="-116.742" y="0">Authorized Signature</tspan></text>
    <g id="Vat_rec" transform="translate(914 212)" fill="#fff" stroke="#707070" stroke-width="1">
      <rect width="233" height="82" stroke="none"/>
      <rect x="0.5" y="0.5" width="232" height="81" fill="none"/>
    </g>
    <g id="Rate_rec" transform="translate(684 212)" fill="#fff" stroke="#707070" stroke-width="1">
      <rect width="230" height="82" stroke="none"/>
      <rect x="0.5" y="0.5" width="229" height="81" fill="none"/>
    </g>
    <g id="Quantity_rec" transform="translate(450 212)" fill="#fff" stroke="#707070" stroke-width="1">
      <rect width="234" height="82" stroke="none"/>
      <rect x="0.5" y="0.5" width="233" height="81" fill="none"/>
    </g>
    <g id="Desc_rec" transform="translate(225 212)" fill="#fff" stroke="#707070" stroke-width="1">
      <rect width="225" height="82" stroke="none"/>
      <rect x="0.5" y="0.5" width="224" height="81" fill="none"/>
    </g>
    <g id="Price_rec" transform="translate(1379 212)" fill="#fff" stroke="#707070" stroke-width="1">
      <rect width="245" height="82" stroke="none"/>
      <rect x="0.5" y="0.5" width="244" height="81" fill="none"/>
    </g>
    <g id="Amnt_rec" transform="translate(1147 212)" fill="#fff" stroke="#707070" stroke-width="1">
      <rect width="237" height="82" stroke="none"/>
      <rect x="0.5" y="0.5" width="236" height="81" fill="none"/>
    </g>
    <text id="Description" transform="translate(339 274)" fill="#707070" font-size="30" font-family="Arial-BoldMT, Arial" font-weight="700"><tspan x="-82.515" y="0">Description</tspan></text>
    <text id="Quantity" transform="translate(567 271)" fill="#707070" font-size="30" font-family="Arial-BoldMT, Arial" font-weight="700"><tspan x="-60.835" y="0">Quantity</tspan></text>
    <text id="Rate" transform="translate(801 271)" fill="#707070" font-size="30" font-family="Arial-BoldMT, Arial" font-weight="700"><tspan x="-32.512" y="0">Rate</tspan></text>
    <text id="VAT_" data-name="VAT%" transform="translate(1033 271)" fill="#707070" font-size="30" font-family="Arial-BoldMT, Arial" font-weight="700"><tspan x="-41.111" y="0">VAT%</tspan></text>
    <text id="Amount" transform="translate(1266 274)" fill="#707070" font-size="30" font-family="Arial-BoldMT, Arial" font-weight="700"><tspan x="-56.653" y="0">Amount</tspan></text>
    <text id="Price_with_VAT_" data-name="Price(with VAT)" transform="translate(1502 274)" fill="#707070" font-size="30" font-family="Arial-BoldMT, Arial" font-weight="700"><tspan x="-108.618" y="0">Price(with VAT)</tspan></text>
    <g id="Rectangle_23" data-name="Rectangle 23" transform="translate(0 294)" fill="#a4d6f1" stroke="#707070" stroke-width="1">
      <rect width="1624" height="74" stroke="none"/>
      <rect x="0.5" y="0.5" width="1623" height="73" fill="none"/>
    </g>
    <rect id="SubItem_rec" width="220" height="58" transform="translate(0 302)" fill="#fff"/>
    <rect id="SubDesc_rec" width="220" height="58" transform="translate(228 302)" fill="#fff"/>
    <rect id="SubQuantity_rec" width="161" height="58" transform="translate(456 302)" fill="#fff"/>
    <rect id="SubRate_rec" width="150" height="58" transform="translate(684 302)" fill="#fff"/>
    <rect id="subVat_rec" width="150" height="58" transform="translate(917 302)" fill="#fff"/>
    <text id="Item_" data-name="Item " transform="translate(0 329)" fill="#707070" font-size="30" font-family="ArialMT, Arial"><tspan x="0" y="0">Item </tspan></text>
    <text id="Description-2" data-name="Description" transform="translate(228 330)" fill="#707070" font-size="30" font-family="ArialMT, Arial"><tspan x="0" y="0">Description</tspan></text>
    <text id="_0.00" data-name="0.00" transform="translate(456 329)" fill="#707070" font-size="30" font-family="ArialMT, Arial"><tspan x="0" y="0">0.00</tspan></text>
    <text id="_0.00-2" data-name="0.00" transform="translate(684 329)" fill="#707070" font-size="30" font-family="ArialMT, Arial"><tspan x="0" y="0">0.00</tspan></text>
    <text id="_0.00-3" data-name="0.00" transform="translate(917 330)" fill="#707070" font-size="30" font-family="ArialMT, Arial"><tspan x="0" y="0">0.00</tspan></text>
    <text id="Amnt_value" transform="translate(1150 330)" fill="#707070" font-size="30" font-family="ArialMT, Arial"><tspan x="0" y="0">0.00</tspan></text>
    <text id="Price_value" transform="translate(1393 330)" fill="#707070" font-size="30" font-family="ArialMT, Arial"><tspan x="0" y="0">0.00</tspan></text>
    <g id="Path_11" data-name="Path 11" transform="translate(0 368)" fill="#a4d6f1">
      <path d="M 1623.5 41.5 L 75.14019775390625 41.5 L 0.5 41.5 L 0.5 0.5 L 1623.5 0.5 L 1623.5 41.5 Z" stroke="none"/>
      <path d="M 1 1 L 1 41 L 75.1402587890625 41 L 1623 41 L 1623 1 L 1 1 M 0 0 L 1624 0 L 1624 42 L 75.1402587890625 42 L 0 42 L 0 0 Z" stroke="none" fill="#707070"/>
    </g>
    <text id="Add_a_row" data-name="Add a row" transform="translate(10 398)" fill="#0790ec" font-size="25" font-family="ArialMT, Arial"><tspan x="0" y="0">Add a row</tspan></text>
    <text id=":_Rs." data-name=": Rs." transform="translate(1176 603)" fill="#707070" font-size="25" font-family="Arial-BoldMT, Arial" font-weight="700"><tspan x="0" y="0">: Rs.</tspan></text>
    <line id="Line_13" data-name="Line 13" x2="827" transform="translate(0.5 617.5)" fill="none" stroke="#707070" stroke-width="1"/>
    <g id="Group_round_total" data-name="Group_round total">
      <g id="Rectangle_24" data-name="Rectangle 24" transform="translate(827 617)" fill="#fff" stroke="#707070" stroke-width="1">
        <rect width="797" height="43" stroke="none"/>
        <rect x="0.5" y="0.5" width="796" height="42" fill="none"/>
      </g>
      <text id="Round_Total:_0.00" data-name="Round Total:       0.00" transform="translate(1074 649)" fill="#707070" font-size="25" font-family="Arial-BoldMT, Arial" font-weight="700"><tspan x="0" y="0" xml:space="preserve">Round Total:       0.00</tspan></text>
    </g>
    <line id="Line_10" data-name="Line 10" x2="827" y2="2" transform="translate(0 808)" fill="none" stroke="#707070" stroke-width="1"/>
    <text id="SAVE_INVOICE" data-name="SAVE INVOICE" transform="translate(798 985)" fill="#707070" font-size="25" font-family="ArialMT, Arial"><tspan x="-87.292" y="0">SAVE INVOICE</tspan></text>
    <text id="Consignee_" data-name="Consignee," transform="translate(77 80)" fill="#707070" font-size="25" font-family="Arial-BoldMT, Arial" font-weight="700"><tspan x="-67.371" y="0">Consignee,</tspan></text>
  </g>
</svg>
